<?xml version="1.0" encoding="UTF-8"?>
<svg version="1.1" xmlns="http://www.w3.org/2000/svg" width="512" height="512">
<path d="M0 0 C0.92428033 -0.00445784 1.84856067 -0.00891569 2.8008495 -0.01350862 C3.81279611 -0.01332426 4.82474273 -0.01313989 5.86735439 -0.01294994 C6.94515224 -0.01662663 8.02295009 -0.02030332 9.13340849 -0.02409142 C12.75749204 -0.03513495 16.38154693 -0.03897327 20.0056448 -0.04278088 C22.59919228 -0.04904505 25.19273885 -0.05569181 27.78628445 -0.0626936 C35.57857891 -0.0824439 43.37087465 -0.0925229 51.16318789 -0.10142139 C54.83524243 -0.10580709 58.50729554 -0.11117321 62.17934895 -0.11641026 C74.39078026 -0.13342195 86.60221069 -0.14791492 98.81365204 -0.155159 C101.98165354 -0.15706881 105.14965504 -0.15898915 108.31765652 -0.16094494 C109.49870476 -0.16167055 109.49870476 -0.16167055 110.70361256 -0.16241082 C123.45119547 -0.17070663 136.19868441 -0.19603619 148.94622631 -0.22852562 C162.04212165 -0.26162996 175.13796929 -0.27961085 188.23390669 -0.28280324 C195.58341133 -0.28496533 202.93277899 -0.29366972 210.28224277 -0.31926441 C217.19908023 -0.34329717 224.1156678 -0.34677591 231.03253841 -0.33650303 C233.56770745 -0.33600769 236.10288862 -0.34232757 238.63802052 -0.35605907 C242.10684867 -0.37379271 245.57479451 -0.3666635 249.04362392 -0.35352612 C250.03995549 -0.36449536 251.03628705 -0.37546461 252.06281048 -0.38676625 C264.87206207 -0.27015004 275.14446075 5.20800131 284.52493191 13.63422108 C294.78344319 24.24222072 296.8641716 36.99619681 296.69290066 51.10687733 C296.47771095 56.98035471 295.07250949 61.9061131 292.39993191 67.13422108 C291.73253227 68.46718767 291.06576224 69.8004699 290.39993191 71.13422108 C292.01699787 71.13968952 292.01699787 71.13968952 293.66673183 71.14526844 C303.8617715 71.18232431 314.05651208 71.24021219 324.2513237 71.31812382 C329.49170848 71.35751288 334.73192738 71.38974331 339.97244167 71.40521717 C345.03660309 71.4204403 350.10030819 71.45498577 355.16426563 71.5025301 C357.0893566 71.51728574 359.01451274 71.52525873 360.93966007 71.52610493 C377.65429546 71.54083125 389.75371266 74.16218536 402.52493191 85.63422108 C412.78456005 96.24337563 414.88376316 109.01005614 414.67727566 123.12640858 C414.21746298 135.43840775 407.58691253 145.79254796 398.88430691 154.20843983 C390.44336935 160.75149363 381.18357224 164.20535274 370.57180691 164.45062733 C369.82280117 164.47140842 369.07379543 164.49218952 368.30209255 164.51360035 C365.91812903 164.57879195 363.53405879 164.63783891 361.14993191 164.69672108 C359.53012937 164.73993523 357.91033748 164.78355044 356.29055691 164.82758045 C352.32712359 164.93444204 348.36358331 165.03579441 344.39993191 165.13422108 C346.1024187 169.38664158 346.1024187 169.38664158 349.3950491 172.35931873 C350.53441921 172.70035633 350.53441921 172.70035633 351.69680691 173.04828358 C352.56176785 173.32784901 353.42672878 173.60741444 354.31790066 173.89545155 C355.25247097 174.18049549 356.18704128 174.46553944 357.14993191 174.75922108 C378.39751408 181.87349286 397.76575416 192.74953564 414.16946316 208.05609608 C416.21775813 209.96448999 418.32028788 211.77046834 420.46243191 213.57172108 C434.46121256 225.86265049 444.91711885 241.69288277 453.39993191 258.13422108 C453.71945827 258.75264881 454.03898464 259.37107655 454.36819363 260.00824451 C464.69406695 280.31453591 471.3902109 303.3704375 471.63821316 326.23578358 C471.64796169 326.98647114 471.65771023 327.7371587 471.66775417 328.51059437 C471.83894389 345.10636707 471.61155021 360.96792765 467.39993191 377.13422108 C467.21269558 377.88993397 467.02545925 378.64564686 466.8325491 379.42426014 C464.13652948 390.14780622 460.2083378 400.19064759 455.39993191 410.13422108 C455.06477566 410.83047596 454.72961941 411.52673084 454.38430691 412.24408436 C449.10808066 423.05001227 442.90511403 432.74577306 435.39993191 442.13422108 C434.68232693 443.03334217 434.68232693 443.03334217 433.95022488 443.95062733 C406.55220706 477.87983428 367.56588092 499.30432457 324.48977566 505.71625233 C303.42537922 507.84844086 280.90588182 507.45754468 260.39993191 502.13422108 C259.65485378 501.95230213 258.90977566 501.77038319 258.14211941 501.58295155 C246.66373357 498.74630982 236.01814161 494.28838625 225.39993191 489.13422108 C224.73187527 488.81050526 224.06381863 488.48678944 223.37551785 488.15326405 C209.52385915 481.3383034 197.67147565 472.66472908 186.39993191 462.13422108 C184.27442074 460.25919103 182.13540319 458.40082835 179.99368191 456.54437733 C178.75690201 455.45006963 177.56765059 454.30193976 176.39993191 453.13422108 C174.10812498 452.8311884 174.10812498 452.8311884 171.41203213 452.88266468 C170.35658199 452.87728184 169.30113186 452.87189899 168.21369839 452.86635303 C167.05062664 452.87047703 165.88755489 452.87460102 164.68923855 452.87884998 C163.46791225 452.87522953 162.24658596 452.87160908 160.98824978 452.86787891 C158.32701258 452.86096845 155.666028 452.85760156 153.00480747 452.85982609 C148.78833694 452.86265861 144.57203411 452.84830619 140.35560513 452.83084583 C128.36381497 452.78382361 116.37203472 452.75990446 104.38015652 452.7533617 C97.76026459 452.7495974 91.14056116 452.73145205 84.52074999 452.69826734 C80.33886402 452.6781584 76.1574678 452.67563204 71.97555363 452.68654752 C68.7420205 452.68979366 65.50864582 452.66700448 62.27517605 452.64838123 C61.13032238 452.65655369 59.98546871 452.66472614 58.80592251 452.67314625 C45.44787358 452.53691837 35.10760655 447.46664283 25.27493191 438.63422108 C15.01530376 428.02506652 12.91610065 415.25838602 13.12258816 401.14203358 C13.53021784 390.22729257 18.65156254 380.78147424 26.27493191 373.07172108 C26.97618191 372.43234608 27.67743191 371.79297108 28.39993191 371.13422108 C27.02732077 368.05767887 25.4294777 365.97608294 23.08743191 363.57172108 C13.33745549 352.7225824 12.70412718 340.34679475 13.22073269 326.51410389 C14.0279279 315.79402357 20.63432587 306.21462658 28.39993191 299.13422108 C27.02732077 296.05767887 25.4294777 293.97608294 23.08743191 291.57172108 C13.33745549 280.7225824 12.70412718 268.34679475 13.22073269 254.51410389 C14.0279279 243.79402357 20.63432587 234.21462658 28.39993191 227.13422108 C27.02732077 224.05767887 25.4294777 221.97608294 23.08743191 219.57172108 C13.33745549 208.7225824 12.70412718 196.34679475 13.22073269 182.51410389 C14.05178043 171.47724637 21.15981538 161.56022523 28.91555691 154.06000233 C37.35649447 147.51694853 46.61629158 144.06308941 57.22805691 143.81781483 C58.35156551 143.78664318 58.35156551 143.78664318 59.49777126 143.7548418 C61.88173479 143.6896502 64.26580503 143.63060324 66.64993191 143.57172108 C68.26973445 143.52850692 69.88952634 143.48489171 71.50930691 143.4408617 C75.47274023 143.33400012 79.43628051 143.23264774 83.39993191 143.13422108 C82.875928 142.0127367 82.875928 142.0127367 82.34133816 140.86859608 C81.8862991 139.88375233 81.43126003 138.89890858 80.96243191 137.88422108 C80.50997097 136.90968983 80.05751003 135.93515858 79.59133816 134.93109608 C75.49079486 125.30490264 75.72390761 111.3632356 79.27493191 101.63422108 C79.94085945 100.11491972 80.6448803 98.61125634 81.39993191 97.13422108 C82.06733154 95.80125448 82.73410158 94.46797225 83.39993191 93.13422108 C81.78286594 93.12875263 81.78286594 93.12875263 80.13313198 93.12317371 C69.93809231 93.08611785 59.74335174 93.02822996 49.54854012 92.95031834 C44.30815533 92.91092928 39.06793644 92.87869884 33.82742214 92.86322498 C28.76326073 92.84800185 23.69955563 92.81345639 18.63559818 92.76591206 C16.71050721 92.75115641 14.78535108 92.74318343 12.86020374 92.74233723 C-3.85443165 92.72761091 -15.95384884 90.10625679 -28.72506809 78.63422108 C-38.98469624 68.02506652 -41.08389935 55.25838602 -40.87741184 41.14203358 C-40.41759916 28.8300344 -33.78704871 18.4758942 -25.08444309 10.06000233 C-17.97319503 4.54766696 -9.10185405 0.02041227 0 0 Z M-12.60006809 28.13422108 C-18.74219548 35.21305635 -19.9816393 40.22119771 -19.86569309 49.62250233 C-19.23411997 57.97227058 -15.04988327 62.11542592 -8.91647434 67.47015858 C-1.68882857 72.66236279 6.93385634 72.28221754 15.47556973 72.26793385 C16.47496537 72.2701994 17.47436101 72.27246496 18.50404137 72.27479917 C21.84475695 72.28111703 25.18543173 72.28031122 28.52615261 72.27948475 C30.92472289 72.28247761 33.32329268 72.28588044 35.72186184 72.28966236 C41.5563093 72.29757655 47.39074443 72.30071645 53.22519699 72.30127474 C57.96989247 72.30175068 62.71458463 72.30380931 67.45927906 72.30697536 C80.92496154 72.31577731 94.39063606 72.32039545 107.85632143 72.31964489 C108.94416472 72.31958496 108.94416472 72.31958496 110.05398464 72.31952381 C110.78010365 72.31948293 111.50622265 72.31944205 112.25434526 72.31939993 C124.01946976 72.31899356 135.78456223 72.32856194 147.54967747 72.34266218 C159.64334236 72.35704129 171.73699164 72.36393152 183.83066529 72.3630684 C190.61498632 72.36273697 197.39927377 72.36546052 204.18358707 72.37624645 C210.56526586 72.38593634 216.94687381 72.38600043 223.32855511 72.37872982 C225.66740745 72.37768511 228.00626423 72.38004013 230.34510899 72.38609028 C233.54460324 72.39382909 236.743854 72.38915278 239.94334316 72.38145924 C241.32241178 72.38917458 241.32241178 72.38917458 242.72934037 72.39704579 C252.69007294 72.34433459 261.05170003 71.32510324 268.39993191 64.13422108 C274.5420593 57.05538581 275.78150311 52.04724445 275.66555691 42.64593983 C275.03398378 34.29617158 270.84974708 30.15301624 264.71633816 24.79828358 C257.48869238 19.60607936 248.86600747 19.98622462 240.32429409 20.00050831 C239.32489845 19.99824275 238.3255028 19.9959772 237.29582244 19.99364299 C233.95510686 19.98732512 230.61443209 19.98813093 227.2737112 19.98895741 C224.87514093 19.98596454 222.47657114 19.98256172 220.07800198 19.97877979 C214.24355452 19.9708656 208.40911938 19.96772571 202.57466682 19.96716741 C197.82997134 19.96669148 193.08527918 19.96463284 188.34058475 19.96146679 C174.87490228 19.95266485 161.40922776 19.94804671 147.94354238 19.94879726 C146.85569909 19.9488572 146.85569909 19.9488572 145.74587917 19.94891834 C145.01976017 19.94895922 144.29364117 19.9490001 143.54551855 19.94904222 C131.78039406 19.94944859 120.01530158 19.93988021 108.25018635 19.92577998 C96.15652146 19.91140087 84.06287217 19.90451063 71.96919852 19.90537375 C65.1848775 19.90570519 58.40059005 19.90298163 51.61627674 19.8921957 C45.23459796 19.88250582 38.85299001 19.88244172 32.47130871 19.88971233 C30.13245636 19.89075705 27.79359958 19.88840202 25.45475483 19.88235188 C22.25526058 19.87461307 19.05600981 19.87928938 15.85652065 19.88698292 C14.93714157 19.88183935 14.01776249 19.87669579 13.07052344 19.87139636 C3.10979088 19.92410756 -5.25183621 20.94333892 -12.60006809 28.13422108 Z M105.39993191 100.13422108 C99.25780452 107.21305635 98.0183607 112.22119771 98.13430691 121.62250233 C98.76588003 129.97227058 102.95011673 134.11542592 109.08352566 139.47015858 C116.31117143 144.66236279 124.93385634 144.28221754 133.47556973 144.26793385 C134.47496537 144.2701994 135.47436101 144.27246496 136.50404137 144.27479917 C139.84475695 144.28111703 143.18543173 144.28031122 146.52615261 144.27948475 C148.92472289 144.28247761 151.32329268 144.28588044 153.72186184 144.28966236 C159.5563093 144.29757655 165.39074443 144.30071645 171.22519699 144.30127474 C175.96989247 144.30175068 180.71458463 144.30380931 185.45927906 144.30697536 C198.92496154 144.31577731 212.39063606 144.32039545 225.85632143 144.31964489 C226.94416472 144.31958496 226.94416472 144.31958496 228.05398464 144.31952381 C228.78010365 144.31948293 229.50622265 144.31944205 230.25434526 144.31939993 C242.01946976 144.31899356 253.78456223 144.32856194 265.54967747 144.34266218 C277.64334236 144.35704129 289.73699164 144.36393152 301.83066529 144.3630684 C308.61498632 144.36273697 315.39927377 144.36546052 322.18358707 144.37624645 C328.56526586 144.38593634 334.94687381 144.38600043 341.32855511 144.37872982 C343.66740745 144.37768511 346.00626423 144.38004013 348.34510899 144.38609028 C351.54460324 144.39382909 354.743854 144.38915278 357.94334316 144.38145924 C359.32241178 144.38917458 359.32241178 144.38917458 360.72934037 144.39704579 C370.69007294 144.34433459 379.05170003 143.32510324 386.39993191 136.13422108 C392.5420593 129.05538581 393.78150311 124.04724445 393.66555691 114.64593983 C393.03398378 106.29617158 388.84974708 102.15301624 382.71633816 96.79828358 C375.48869238 91.60607936 366.86600747 91.98622462 358.32429409 92.00050831 C357.32489845 91.99824275 356.3255028 91.9959772 355.29582244 91.99364299 C351.95510686 91.98732512 348.61443209 91.98813093 345.2737112 91.98895741 C342.87514093 91.98596454 340.47657114 91.98256172 338.07800198 91.97877979 C332.24355452 91.9708656 326.40911938 91.96772571 320.57466682 91.96716741 C315.82997134 91.96669148 311.08527918 91.96463284 306.34058475 91.96146679 C292.87490228 91.95266485 279.40922776 91.94804671 265.94354238 91.94879726 C264.85569909 91.9488572 264.85569909 91.9488572 263.74587917 91.94891834 C263.01976017 91.94895922 262.29364117 91.9490001 261.54551855 91.94904222 C249.78039406 91.94944859 238.01530158 91.93988021 226.25018635 91.92577998 C214.15652146 91.91140087 202.06287217 91.90451063 189.96919852 91.90537375 C183.1848775 91.90570519 176.40059005 91.90298163 169.61627674 91.8921957 C163.23459796 91.88250582 156.85299001 91.88244172 150.47130871 91.88971233 C148.13245636 91.89075705 145.79359958 91.88840202 143.45475483 91.88235188 C140.25526058 91.87461307 137.05600981 91.87928938 133.85652065 91.88698292 C132.93714157 91.88183935 132.01776249 91.87669579 131.07052344 91.87139636 C121.10979088 91.92410756 112.74816379 92.94333892 105.39993191 100.13422108 Z M41.39993191 172.13422108 C35.25780452 179.21305635 34.0183607 184.22119771 34.13430691 193.62250233 C34.76588003 201.97227058 38.95011673 206.11542592 45.08352566 211.47015858 C52.71368116 216.95151818 62.11539999 216.30908122 71.11160183 216.42230701 C72.8544949 216.44902988 72.8544949 216.44902988 74.63259792 216.47629261 C85.31526535 216.63035747 95.99887904 216.71960075 106.68242836 216.78628635 C114.56227029 216.83648907 122.44002748 216.92244143 130.31892413 217.05490756 C135.88009707 217.14521925 141.44070132 217.19278296 147.00257474 217.20986485 C150.31517055 217.2212678 153.62449027 217.25685988 156.93642139 217.32781696 C172.57602682 218.30388183 172.57602682 218.30388183 186.354702 212.27559757 C188.58072346 210.05143653 190.49316521 207.63340138 192.39993191 205.13422108 C194.52320766 203.27896595 194.52320766 203.27896595 196.29055691 201.97015858 C196.84614285 201.55540272 197.40172878 201.14064686 197.97415066 200.71332264 C198.52715847 200.31596912 199.08016628 199.91861561 199.64993191 199.50922108 C200.26997097 199.06030506 200.89001003 198.61138905 201.52883816 198.14886951 C208.48758767 193.21568787 215.82602976 189.04193192 223.39993191 185.13422108 C224.01835964 184.81469471 224.63678738 184.49516834 225.27395535 184.16595936 C244.9231 174.17424917 267.31862889 167.50563939 289.42727566 166.81781483 C290.7131155 166.7759203 291.99895535 166.73402576 293.32376003 166.6908617 C294.66164816 166.65106407 295.99953882 166.61135157 297.33743191 166.57172108 C298.70267752 166.52845454 300.06791209 166.48483787 301.43313503 166.4408617 C304.75530843 166.33520954 308.07755137 166.23310713 311.39993191 166.13422108 C311.39993191 165.80422108 311.39993191 165.47422108 311.39993191 165.13422108 C305.67115187 164.15295041 300.12956491 163.99080057 294.32429409 164.00050831 C293.32489845 163.99824275 292.3255028 163.9959772 291.29582244 163.99364299 C287.95510686 163.98732512 284.61443209 163.98813093 281.2737112 163.98895741 C278.87514093 163.98596454 276.47657114 163.98256172 274.07800198 163.97877979 C268.24355452 163.9708656 262.40911938 163.96772571 256.57466682 163.96716741 C251.82997134 163.96669148 247.08527918 163.96463284 242.34058475 163.96146679 C228.87490228 163.95266485 215.40922776 163.94804671 201.94354238 163.94879726 C200.85569909 163.9488572 200.85569909 163.9488572 199.74587917 163.94891834 C199.01976017 163.94895922 198.29364117 163.9490001 197.54551855 163.94904222 C185.78039406 163.94944859 174.01530158 163.93988021 162.25018635 163.92577998 C150.15652146 163.91140087 138.06287217 163.90451063 125.96919852 163.90537375 C119.1848775 163.90570519 112.40059005 163.90298163 105.61627674 163.8921957 C99.23459796 163.88250582 92.85299001 163.88244172 86.47130871 163.88971233 C84.13245636 163.89075705 81.79359958 163.88840202 79.45475483 163.88235188 C76.25526058 163.87461307 73.05600981 163.87928938 69.85652065 163.88698292 C68.93714157 163.88183935 68.01776249 163.87669579 67.07052344 163.87139636 C57.10979088 163.92410756 48.74816379 164.94333892 41.39993191 172.13422108 Z M193.39993191 232.13422108 C166.37554336 259.61762259 152.17997159 297.35220515 152.14993191 335.50922108 C152.14925716 336.2749947 152.14858242 337.04076832 152.14788723 337.8297472 C152.16341395 348.89768399 152.54473214 359.38117034 155.39993191 370.13422108 C155.56622097 370.80550037 155.73251003 371.47677967 155.90383816 372.16840076 C163.3317556 401.94884755 180.40993799 430.72751343 204.39993191 450.13422108 C205.81725613 451.29051014 205.81725613 451.29051014 207.26321316 452.47015858 C229.2535295 470.08297937 256.14576252 482.46107212 284.39993191 485.13422108 C285.03334499 485.19980213 285.66675808 485.26538319 286.3193655 485.33295155 C327.53241452 489.40446101 366.55221961 475.96674655 398.39993191 450.13422108 C404.6421367 444.93102023 410.28944957 439.45164712 415.39993191 433.13422108 C416.17079128 432.18933826 416.94165066 431.24445545 417.73586941 430.27093983 C430.67847252 414.11157841 440.00532658 396.21976201 445.77493191 376.32172108 C446.1330093 375.08784657 446.1330093 375.08784657 446.49832058 373.8290453 C449.89585543 361.42589277 450.77692592 349.17682866 450.71243191 336.38422108 C450.71060909 335.63343281 450.70878628 334.88264454 450.70690823 334.10910511 C450.66215404 323.16502951 450.22257206 312.76464809 447.39993191 302.13422108 C447.23364285 301.46294178 447.06735378 300.79166248 446.89602566 300.10004139 C437.25398478 261.44259973 412.28960687 228.65729904 378.57571316 207.70843983 C318.20773275 171.65203315 242.80424136 183.39866708 193.39993191 232.13422108 Z M41.39993191 244.13422108 C35.25780452 251.21305635 34.0183607 256.22119771 34.13430691 265.62250233 C34.76588003 273.97227058 38.95011673 278.11542592 45.08352566 283.47015858 C51.72576115 288.2418151 59.42783155 288.28821777 67.35476589 288.24774647 C68.49746693 288.24796551 68.49746693 288.24796551 69.66325283 288.24818897 C72.15754037 288.24749757 74.65175132 288.23974169 77.14602566 288.23187733 C78.88479986 288.2300104 80.62357459 288.22858779 82.36234951 288.22758961 C86.92105488 288.22378608 91.47972798 288.21397442 96.03842068 288.20288563 C100.69733144 288.19262483 105.35624746 288.18808201 110.01516628 288.1830492 C119.1434356 288.17235008 128.27168106 288.15529984 137.39993191 288.13422108 C137.74070263 287.31605412 138.08147335 286.49788715 138.43257046 285.65492725 C138.88094769 284.57857517 139.32932491 283.50222309 139.79128933 282.39325428 C140.23518505 281.32758732 140.67908077 280.26192036 141.13642788 279.16396046 C147.09546956 264.87485427 153.10709415 250.62147181 162.39993191 238.13422108 C162.39993191 237.47422108 162.39993191 236.81422108 162.39993191 236.13422108 C149.14312191 236.08779534 135.88633139 236.05229988 122.62945652 236.03059673 C116.47316641 236.02017814 110.3169321 236.00605408 104.1606741 235.98334217 C98.21492753 235.9615452 92.26923449 235.94963798 86.32345104 235.94446659 C84.05976297 235.94078313 81.79607769 235.93359035 79.53241253 235.92276096 C76.35163289 235.90815501 73.17107195 235.90624694 69.99026394 235.9071703 C69.06309063 235.89997974 68.13591732 235.89278919 67.18064785 235.88538074 C57.1770798 235.9166199 48.78204906 236.91017924 41.39993191 244.13422108 Z M41.39993191 316.13422108 C35.25780452 323.21305635 34.0183607 328.22119771 34.13430691 337.62250233 C34.76588003 345.97227058 38.95011673 350.11542592 45.08352566 355.47015858 C51.61570924 360.16275589 59.08258659 360.26128753 66.89578152 360.24774647 C67.96533077 360.24796551 67.96533077 360.24796551 69.05648708 360.24818897 C71.38844871 360.2474982 73.72032817 360.23974537 76.05227566 360.23187733 C77.67894859 360.23001017 79.3056221 360.22858767 80.9322958 360.22758961 C85.19508345 360.22378785 89.45783654 360.21397775 93.72061062 360.20288563 C98.07790567 360.19262097 102.43520635 360.18808119 106.79251003 360.1830492 C115.32833311 360.17235321 123.8641282 360.15530516 132.39993191 360.13422108 C132.39469509 358.91428455 132.38945827 357.69434803 132.38406277 356.43744373 C132.36583624 351.87137059 132.35443592 347.30530061 132.34500027 342.73920155 C132.34000015 340.77044603 132.33319789 338.80169417 132.32449245 336.83295155 C132.31223618 333.98805298 132.30666024 331.14320391 132.30227566 328.29828358 C132.29711437 327.4311977 132.29195309 326.56411182 132.2866354 325.67075062 C132.28610491 319.77022837 132.71058835 313.993568 133.39993191 308.13422108 C123.92425385 308.08771326 114.44861558 308.05225865 104.97284794 308.03059673 C100.5720365 308.02019584 96.17130362 308.00610475 91.77053738 307.98334217 C87.51707476 307.96148123 83.26368734 307.94962472 79.01017284 307.94446659 C77.39401346 307.94079448 75.77785781 307.9336243 74.16173077 307.92276096 C56.32484478 307.48840915 56.32484478 307.48840915 41.39993191 316.13422108 Z M41.39993191 388.13422108 C35.25780452 395.21305635 34.0183607 400.22119771 34.13430691 409.62250233 C34.76588003 417.97227058 38.95011673 422.11542592 45.08352566 427.47015858 C52.31288868 432.66359643 60.92354932 432.28115691 69.46609402 432.24774647 C70.45222683 432.24789249 71.43835964 432.24803852 72.45437527 432.24818897 C75.69536488 432.24749548 78.93629615 432.23972953 82.17727566 432.23187733 C84.43171565 432.23001115 86.68615604 432.22858819 88.94059658 432.22758961 C94.86052485 432.2237802 100.78042841 432.21396339 106.70034695 432.20288563 C112.74668957 432.19263759 118.79303621 432.18808472 124.83938503 432.1830492 C136.69291149 432.17233968 148.54641964 432.15528223 160.39993191 432.13422108 C159.851889 431.18033497 159.30384609 430.22644886 158.73919582 429.24365711 C158.01228641 427.97576288 157.28543181 426.70783722 156.55862331 425.43988514 C156.19833538 424.81312885 155.83804745 424.18637257 155.4668417 423.54062366 C152.71710594 418.73982172 150.13459787 413.89008388 147.77493191 408.88422108 C147.40303738 408.10063221 147.03114285 407.31704334 146.64797878 406.50970936 C143.34067481 399.35673631 140.82878465 392.0193834 138.49368191 384.50140858 C137.74435186 381.32728569 137.74435186 381.32728569 136.39993191 380.13422108 C134.04938144 380.02861641 131.72807071 379.98743666 129.37673855 379.98895741 C128.64163052 379.98559879 127.90652248 379.98224018 127.14913845 379.97877979 C124.70277142 379.96923231 122.2564727 379.96732401 119.81008816 379.96625233 C118.10911436 379.96303956 116.40814084 379.95967547 114.70716763 379.95616627 C111.13005846 379.95016356 107.55297349 379.94832725 103.97585964 379.94891834 C99.41320601 379.94901939 94.85071002 379.93543228 90.28809357 379.91814613 C86.76798208 379.90696554 83.24790776 379.90500108 79.72778034 379.90552807 C78.04743252 379.90435456 76.36708353 379.89996846 74.68675327 379.8921957 C56.57311312 379.42743212 56.57311312 379.42743212 41.39993191 388.13422108 Z " fill="#1967D2" transform="translate(40.60006809234619,2.865778923034668)"/>
<path d="M0 0 C2.8100346 1.79363911 4.50940468 3.01880935 6 6 C6.06950541 7.54023996 6.08452357 9.08334988 6.0625 10.625 C6.05347656 11.44226563 6.04445313 12.25953125 6.03515625 13.1015625 C6.02355469 13.72804688 6.01195312 14.35453125 6 15 C6.88042969 15.1134375 7.76085937 15.226875 8.66796875 15.34375 C18.17768103 17.21670623 26.06712942 23.55412828 32 31 C37.34867727 39.71399335 39.19465764 47.7545122 38 58 C36.33842203 61.05655948 34.10074078 62.44962961 31 64 C27.24132257 64.42712244 25.31080824 64.16092609 21.921875 62.40625 C18.33915075 59.45577121 17.932993 57.67266949 17 53.1875 C15.02887115 45.384101 12.70041091 41.29425476 5.875 37.0625 C-0.52531772 34.79187731 -8.2425802 34.82086017 -14.4375 37.625 C-19.35121152 40.54666631 -22.69859784 44.35403442 -24.5 49.8125 C-25.46725132 54.66735758 -24.32865579 58.69651245 -22 63 C-15.77863884 69.65540961 -8.91434803 70.98057643 -0.25 71.875 C12.15219036 73.23292501 21.58785019 77.54007352 30 87 C37.48020508 97.30468086 39.36834016 107.50152279 38 120 C35.41451685 131.00712972 28.34535182 139.53238105 18.875 145.5 C14.99024569 147.64875473 11.33116654 149.05844206 7 150 C6.91363281 150.67546875 6.82726562 151.3509375 6.73828125 152.046875 C5.6028496 159.25530343 5.6028496 159.25530343 2.875 162.625 C-0.92105313 164.44050367 -3.87059043 164.78735193 -8 164 C-10.8125 162.625 -10.8125 162.625 -13 160 C-13.38682162 158.36153413 -13.73754603 156.71434936 -14.0625 155.0625 C-14.6512643 152.35461669 -14.6512643 152.35461669 -16 150 C-18.82082046 148.38618671 -21.65792931 147.44531745 -24.7265625 146.3828125 C-33.34763174 142.74097657 -39.85631659 135.23360263 -43.90625 126.93359375 C-46.24179713 120.6693227 -48.35604949 113.37233403 -45.875 106.875 C-42.91778523 102.34060403 -42.91778523 102.34060403 -40 101 C-33.23656408 100.24850712 -33.23656408 100.24850712 -29.37109375 102.59765625 C-26.42056028 105.58707648 -25.91073317 107.80297189 -25 111.875 C-23.05377178 119.41132008 -23.05377178 119.41132008 -18 125 C-11.15490421 128.73583812 -5.07566229 130.26496257 2.5078125 128.375 C7.98256733 126.54463421 11.79695488 124.21592085 15 119.34765625 C16.88617491 114.91956593 16.83980693 110.68712757 16 106 C13.41101523 100.72614214 9.81966023 97.10816341 4.31640625 94.9453125 C0.65716576 93.90227811 -2.91785639 93.48278285 -6.6875 93.125 C-19.70535924 91.64871714 -29.36743194 87.35734953 -38.3125 77.5625 C-44.99601585 69.15719197 -47.39583808 59.78481563 -46.84765625 49.00390625 C-45.18856603 37.86430046 -39.93013713 28.8751908 -31 22 C-19.56986301 15 -19.56986301 15 -15 15 C-14.99742187 14.33613281 -14.99484375 13.67226563 -14.9921875 12.98828125 C-14.63646278 4.86590016 -14.63646278 4.86590016 -11.4375 1.875 C-6.96552807 -0.56425742 -5.03253902 -0.71893415 0 0 Z " fill="#1967D2" transform="translate(346,256)"/>
<path d="M0 0 C5.57894737 3.15789474 5.57894737 3.15789474 7 6 C7.73106087 12.48016399 6.4822376 17.31085931 3.75 23.125 C-6.62615 46.6454955 -9.03002547 74.35612872 -1 99 C-0.79101074 99.64146973 -0.58202148 100.28293945 -0.36669922 100.94384766 C8.75384064 127.79990921 26.07157141 147.27697864 50 162 C51.75636985 163.13604532 53.50740355 164.28043837 55.25 165.4375 C56.27867187 166.11619141 56.27867187 166.11619141 57.328125 166.80859375 C59.85811418 168.6115066 60.90025805 169.67008431 61.8125 172.6875 C62.05573244 176.98460643 61.16677278 179.2955175 59 183 C55.68254111 185.41269737 53.86788967 186.05247217 49.76953125 185.8046875 C45.4364865 184.87970593 42.23536445 183.33716544 38.4375 181.125 C37.74422607 180.72571289 37.05095215 180.32642578 36.33666992 179.91503906 C5.4863594 161.66724394 -14.29776615 133.09978549 -24 99 C-24.36222656 97.75734375 -24.72445312 96.5146875 -25.09765625 95.234375 C-31.91483973 66.44366522 -27.69060905 29.95521613 -12.17578125 4.53515625 C-8.88967908 0.24466405 -5.21872392 -0.74553199 0 0 Z " fill="#1967D2" transform="translate(239,272)"/>
<path d="M0 0 C1.30803732 0.72566911 2.60729219 1.46734102 3.8984375 2.22265625 C4.59501465 2.62524658 5.2915918 3.02783691 6.00927734 3.44262695 C34.96071839 20.55510278 55.98865874 48.0139283 65.2734375 80.28515625 C65.58885498 81.36313477 65.58885498 81.36313477 65.91064453 82.46289062 C74.5103829 113.3211759 70.17130788 148.42661756 55.6484375 176.78515625 C53.68049921 180.00949815 51.91732517 181.95202662 48.2734375 183.28515625 C44.19904537 183.89198061 42.58334856 183.46057761 38.9609375 181.41015625 C36.2734375 179.28515625 36.2734375 179.28515625 35.2734375 177.28515625 C34.54237663 170.80499226 35.7911999 165.97429694 38.5234375 160.16015625 C48.8995875 136.63966075 51.30346297 108.92902753 43.2734375 84.28515625 C43.06444824 83.64368652 42.85545898 83.0022168 42.64013672 82.34130859 C33.51959686 55.48524704 16.20186609 36.00817761 -7.7265625 21.28515625 C-9.48293235 20.14911093 -11.23396605 19.00471788 -12.9765625 17.84765625 C-13.66234375 17.39519531 -14.348125 16.94273437 -15.0546875 16.4765625 C-17.58467668 14.67364965 -18.62682055 13.61507194 -19.5390625 10.59765625 C-19.78229494 6.30054982 -18.89333528 3.98963875 -16.7265625 0.28515625 C-11.16079342 -3.76267581 -5.93925383 -3.00217502 0 0 Z " fill="#1967D2" transform="translate(402.7265625,222.71484375)"/>
<path d="M0 0 C3.125 1.875 3.125 1.875 5 5 C5.98876625 10.02622846 5.7769173 13.70513784 3.125 18.125 C-1.2695671 20.76174026 -4.99527649 20.91219098 -10 20 C-12.93423195 18.20353146 -14.47205355 17.0558929 -16 14 C-16.5811138 6.91041162 -16.5811138 6.91041162 -14.125 3.0625 C-9.99970878 -0.94145913 -5.50799075 -0.72632845 0 0 Z " fill="#1967D2" transform="translate(332,449)"/>
<path d="M0 0 C2.93423195 1.79646854 4.47205355 2.9441071 6 6 C6.5811138 13.08958838 6.5811138 13.08958838 4.125 16.9375 C1.11127564 19.8625854 -0.70145421 20.21474934 -4.8125 20.375 C-8.52057752 20.31060502 -9.85127184 20.0892369 -13.125 18.125 C-15.7769173 13.70513784 -15.98876625 10.02622846 -15 5 C-11.43998918 -0.93335137 -6.35550428 -1.1583924 0 0 Z " fill="#1967D2" transform="translate(362,209)"/>
</svg>
